# Created by 3DAce v2.72


g
v -0.009500 -0.006250 0.001000
v -0.009500 0.005250 0.001000
v 0.009500 -0.006250 0.001000
v 0.009500 0.005250 0.001000
v 0.009500 -0.006250 0.000000
v 0.009500 0.005250 0.000000
v -0.009500 -0.006250 0.000000
v -0.009500 0.005250 0.000000
v -0.000750 -0.009000 -0.001000
v -0.000750 0.000000 -0.001000
v 0.000750 -0.009000 -0.001000
v 0.000750 0.000000 -0.001000
v 0.000750 -0.009000 -0.002000
v 0.000750 0.000000 -0.002000
v -0.000750 -0.009000 -0.002000
v -0.000750 0.000000 -0.002000
v -0.000750 -0.001000 0.000000
v -0.000750 0.000000 0.000000
v 0.000750 -0.001000 0.000000
v 0.000750 0.000000 0.000000
v 0.000750 -0.001000 -0.001000
v -0.000750 -0.001000 -0.001000
v -0.005000 -0.010000 0.003250
v -0.005000 -0.009000 0.003250
v 0.005000 -0.010000 0.003250
v 0.005000 -0.009000 0.003250
v 0.005000 -0.010000 -0.003250
v 0.005000 -0.009000 -0.003250
v -0.005000 -0.010000 -0.003250
v -0.005000 -0.009000 -0.003250
# 30 vertices

vt 0.008860 0.389490
vt 0.008860 0.008860
vt 0.637730 0.008860
vt 0.008860 0.389490
vt 0.637730 0.389490
vt 0.008860 0.389490
vt 0.637730 0.008860
vt 0.637730 0.389490
vt 0.790200 0.855220
vt 0.790200 0.474590
vt 0.823290 0.474590
vt 0.790200 0.855220
vt 0.823290 0.855220
vt 0.790200 0.855220
vt 0.823290 0.474590
vt 0.823290 0.855220
vt 0.008860 0.787840
vt 0.008860 0.407220
vt 0.637730 0.407220
vt 0.008860 0.787840
vt 0.637730 0.787840
vt 0.008860 0.787840
vt 0.637730 0.407220
vt 0.637730 0.787840
vt 0.841020 0.855220
vt 0.841020 0.474590
vt 0.874120 0.474590
vt 0.841020 0.855220
vt 0.874120 0.855220
vt 0.841020 0.855220
vt 0.874120 0.474590
vt 0.874120 0.855220
vt 0.008860 0.838670
vt 0.008860 0.805570
vt 0.637730 0.805570
vt 0.008860 0.838670
vt 0.637730 0.838670
vt 0.008860 0.838670
vt 0.637730 0.805570
vt 0.637730 0.838670
vt 0.008860 0.889490
vt 0.008860 0.856390
vt 0.637730 0.856390
vt 0.008860 0.889490
vt 0.637730 0.889490
vt 0.008860 0.889490
vt 0.637730 0.856390
vt 0.637730 0.889490
vt 0.655450 0.772470
vt 0.655450 0.474590
vt 0.705100 0.474590
vt 0.655450 0.772470
vt 0.705100 0.772470
vt 0.655450 0.772470
vt 0.705100 0.474590
vt 0.705100 0.772470
vt 0.891840 0.772470
vt 0.891840 0.474590
vt 0.924940 0.474590
vt 0.891840 0.772470
vt 0.924940 0.772470
vt 0.891840 0.772470
vt 0.924940 0.474590
vt 0.924940 0.772470
vt 0.722820 0.772470
vt 0.722820 0.474590
vt 0.772470 0.474590
vt 0.722820 0.772470
vt 0.772470 0.772470
vt 0.722820 0.772470
vt 0.772470 0.474590
vt 0.772470 0.772470
vt 0.942670 0.772470
vt 0.942670 0.474590
vt 0.975760 0.474590
vt 0.942670 0.772470
vt 0.975760 0.772470
vt 0.942670 0.772470
vt 0.975760 0.474590
vt 0.975760 0.772470
vt 0.655450 0.874120
vt 0.655450 0.841020
vt 0.705100 0.841020
vt 0.655450 0.874120
vt 0.705100 0.874120
vt 0.655450 0.874120
vt 0.705100 0.841020
vt 0.705100 0.874120
vt 0.722820 0.874120
vt 0.722820 0.841020
vt 0.772470 0.841020
vt 0.722820 0.874120
vt 0.772470 0.874120
vt 0.722820 0.874120
vt 0.772470 0.841020
vt 0.772470 0.874120
vt 0.655450 0.823290
vt 0.655450 0.790200
vt 0.705100 0.790200
vt 0.655450 0.823290
vt 0.705100 0.823290
vt 0.655450 0.823290
vt 0.705100 0.790200
vt 0.705100 0.823290
vt 0.939140 0.940310
vt 0.939140 0.907220
vt 0.972240 0.907220
vt 0.939140 0.940310
vt 0.972240 0.940310
vt 0.939140 0.940310
vt 0.972240 0.907220
vt 0.972240 0.940310
vt 0.722820 0.823290
vt 0.722820 0.790200
vt 0.772470 0.790200
vt 0.722820 0.823290
vt 0.772470 0.823290
vt 0.722820 0.823290
vt 0.772470 0.790200
vt 0.772470 0.823290
vt 0.241720 0.991140
vt 0.241720 0.958040
vt 0.274820 0.958040
vt 0.241720 0.991140
vt 0.274820 0.991140
vt 0.241720 0.991140
vt 0.274820 0.958040
vt 0.274820 0.991140
vt 0.891840 0.823290
vt 0.891840 0.790200
vt 0.941490 0.790200
vt 0.891840 0.823290
vt 0.941490 0.823290
vt 0.891840 0.823290
vt 0.941490 0.790200
vt 0.941490 0.823290
vt 0.891840 0.874120
vt 0.891840 0.841020
vt 0.941490 0.841020
vt 0.891840 0.874120
vt 0.941490 0.874120
vt 0.891840 0.874120
vt 0.941490 0.841020
vt 0.941490 0.874120
vt 0.008860 0.940310
vt 0.008860 0.907220
vt 0.339840 0.907220
vt 0.008860 0.940310
vt 0.339840 0.940310
vt 0.008860 0.940310
vt 0.339840 0.907220
vt 0.339840 0.940310
vt 0.706270 0.940310
vt 0.706270 0.907220
vt 0.921410 0.907220
vt 0.706270 0.940310
vt 0.921410 0.940310
vt 0.706270 0.940310
vt 0.921410 0.907220
vt 0.921410 0.940310
vt 0.357570 0.940310
vt 0.357570 0.907220
vt 0.688550 0.907220
vt 0.357570 0.940310
vt 0.688550 0.940310
vt 0.357570 0.940310
vt 0.688550 0.907220
vt 0.688550 0.940310
vt 0.008860 0.991140
vt 0.008860 0.958040
vt 0.224000 0.958040
vt 0.008860 0.991140
vt 0.224000 0.991140
vt 0.008860 0.991140
vt 0.224000 0.958040
vt 0.224000 0.991140
vt 0.655450 0.224000
vt 0.655450 0.008860
vt 0.986430 0.008860
vt 0.655450 0.224000
vt 0.986430 0.224000
vt 0.655450 0.224000
vt 0.986430 0.008860
vt 0.986430 0.224000
vt 0.655450 0.456860
vt 0.655450 0.241730
vt 0.986430 0.241730
vt 0.655450 0.456860
vt 0.986430 0.456860
vt 0.655450 0.456860
vt 0.986430 0.241730
vt 0.986430 0.456860
# 192 texture vertices

vn 0.000000 -0.000000 -1.000000
vn -0.000000 -0.000000 -1.000000
vn 0.000000 -0.000000 -1.000000
vn 0.000000 -0.000000 -1.000000
vn 0.000000 -0.000000 -1.000000
vn 0.000000 -0.000000 -1.000000
vn 0.000000 -0.000000 -1.000000
vn 0.000000 -0.000000 -1.000000
vn -1.000000 0.000000 0.000000
vn -1.000000 0.000000 0.000000
vn -1.000000 0.000000 0.000000
vn -1.000000 0.000000 0.000000
vn -1.000000 -0.000000 -0.000000
vn -1.000000 0.000000 0.000000
vn -1.000000 0.000000 0.000000
vn -1.000000 -0.000000 -0.000000
vn 0.000000 0.000000 1.000000
vn -0.000000 0.000000 1.000000
vn 0.000000 0.000000 1.000000
vn 0.000000 0.000000 1.000000
vn 0.000000 0.000000 1.000000
vn 0.000000 0.000000 1.000000
vn 0.000000 0.000000 1.000000
vn 0.000000 0.000000 1.000000
vn 1.000000 0.000000 0.000000
vn 1.000000 0.000000 0.000000
vn 1.000000 0.000000 0.000000
vn 1.000000 0.000000 0.000000
vn 1.000000 0.000000 -0.000000
vn 1.000000 0.000000 0.000000
vn 1.000000 0.000000 0.000000
vn 1.000000 0.000000 -0.000000
vn 0.000000 -1.000000 0.000000
vn 0.000000 -1.000000 0.000000
vn 0.000000 -1.000000 0.000000
vn 0.000000 -1.000000 0.000000
vn 0.000000 -1.000000 0.000000
vn 0.000000 -1.000000 0.000000
vn 0.000000 -1.000000 0.000000
vn 0.000000 -1.000000 0.000000
vn 0.000000 1.000000 0.000000
vn 0.000000 1.000000 0.000000
vn 0.000000 1.000000 0.000000
vn 0.000000 1.000000 0.000000
vn -0.000000 1.000000 0.000000
vn 0.000000 1.000000 0.000000
vn 0.000000 1.000000 0.000000
vn -0.000000 1.000000 0.000000
vn 0.000000 -0.000000 -1.000000
vn -0.000000 -0.000000 -1.000000
vn 0.000000 -0.000000 -1.000000
vn 0.000000 -0.000000 -1.000000
vn 0.000000 -0.000000 -1.000000
vn 0.000000 -0.000000 -1.000000
vn 0.000000 -0.000000 -1.000000
vn 0.000000 -0.000000 -1.000000
vn -1.000000 0.000000 0.000000
vn -1.000000 0.000000 0.000000
vn -1.000000 0.000000 0.000000
vn -1.000000 0.000000 0.000000
vn -1.000000 -0.000000 -0.000000
vn -1.000000 0.000000 0.000000
vn -1.000000 0.000000 0.000000
vn -1.000000 -0.000000 -0.000000
vn 0.000000 0.000000 1.000000
vn -0.000000 0.000000 1.000000
vn 0.000000 0.000000 1.000000
vn 0.000000 0.000000 1.000000
vn 0.000000 0.000000 1.000000
vn 0.000000 0.000000 1.000000
vn 0.000000 0.000000 1.000000
vn 0.000000 0.000000 1.000000
vn 1.000000 0.000000 0.000000
vn 1.000000 0.000000 0.000000
vn 1.000000 0.000000 0.000000
vn 1.000000 0.000000 0.000000
vn 1.000000 0.000000 -0.000000
vn 1.000000 0.000000 0.000000
vn 1.000000 0.000000 0.000000
vn 1.000000 0.000000 -0.000000
vn 0.000000 -1.000000 0.000000
vn 0.000000 -1.000000 0.000000
vn 0.000000 -1.000000 0.000000
vn 0.000000 -1.000000 0.000000
vn 0.000000 -1.000000 0.000000
vn 0.000000 -1.000000 0.000000
vn 0.000000 -1.000000 0.000000
vn 0.000000 -1.000000 0.000000
vn 0.000000 1.000000 0.000000
vn 0.000000 1.000000 0.000000
vn 0.000000 1.000000 0.000000
vn 0.000000 1.000000 0.000000
vn -0.000000 1.000000 0.000000
vn 0.000000 1.000000 0.000000
vn 0.000000 1.000000 0.000000
vn -0.000000 1.000000 0.000000
vn 0.000000 -0.000000 -1.000000
vn -0.000000 -0.000000 -1.000000
vn 0.000000 -0.000000 -1.000000
vn 0.000000 -0.000000 -1.000000
vn 0.000000 -0.000000 -1.000000
vn 0.000000 -0.000000 -1.000000
vn 0.000000 -0.000000 -1.000000
vn 0.000000 -0.000000 -1.000000
vn -1.000000 0.000000 0.000000
vn -1.000000 0.000000 0.000000
vn -1.000000 0.000000 0.000000
vn -1.000000 0.000000 0.000000
vn -1.000000 -0.000000 -0.000000
vn -1.000000 0.000000 0.000000
vn -1.000000 0.000000 0.000000
vn -1.000000 -0.000000 -0.000000
vn 0.000000 0.000000 1.000000
vn -0.000000 0.000000 1.000000
vn 0.000000 0.000000 1.000000
vn 0.000000 0.000000 1.000000
vn 0.000000 0.000000 1.000000
vn 0.000000 0.000000 1.000000
vn 0.000000 0.000000 1.000000
vn 0.000000 0.000000 1.000000
vn 1.000000 0.000000 0.000000
vn 1.000000 0.000000 0.000000
vn 1.000000 0.000000 0.000000
vn 1.000000 0.000000 0.000000
vn 1.000000 0.000000 -0.000000
vn 1.000000 0.000000 0.000000
vn 1.000000 0.000000 0.000000
vn 1.000000 0.000000 -0.000000
vn 0.000000 -1.000000 0.000000
vn 0.000000 -1.000000 0.000000
vn 0.000000 -1.000000 0.000000
vn 0.000000 -1.000000 0.000000
vn 0.000000 -1.000000 0.000000
vn 0.000000 -1.000000 0.000000
vn 0.000000 -1.000000 0.000000
vn 0.000000 -1.000000 0.000000
vn 0.000000 1.000000 0.000000
vn 0.000000 1.000000 0.000000
vn 0.000000 1.000000 0.000000
vn 0.000000 1.000000 0.000000
vn -0.000000 1.000000 0.000000
vn 0.000000 1.000000 0.000000
vn 0.000000 1.000000 0.000000
vn -0.000000 1.000000 0.000000
vn 0.000000 -0.000000 -1.000000
vn -0.000000 -0.000000 -1.000000
vn 0.000000 -0.000000 -1.000000
vn 0.000000 -0.000000 -1.000000
vn 0.000000 -0.000000 -1.000000
vn 0.000000 -0.000000 -1.000000
vn 0.000000 -0.000000 -1.000000
vn 0.000000 -0.000000 -1.000000
vn -1.000000 0.000000 0.000000
vn -1.000000 0.000000 0.000000
vn -1.000000 0.000000 0.000000
vn -1.000000 0.000000 0.000000
vn -1.000000 -0.000000 -0.000000
vn -1.000000 0.000000 0.000000
vn -1.000000 0.000000 0.000000
vn -1.000000 -0.000000 -0.000000
vn 0.000000 0.000000 1.000000
vn -0.000000 0.000000 1.000000
vn 0.000000 0.000000 1.000000
vn 0.000000 0.000000 1.000000
vn 0.000000 0.000000 1.000000
vn 0.000000 0.000000 1.000000
vn 0.000000 0.000000 1.000000
vn 0.000000 0.000000 1.000000
vn 1.000000 0.000000 0.000000
vn 1.000000 0.000000 0.000000
vn 1.000000 0.000000 0.000000
vn 1.000000 0.000000 0.000000
vn 1.000000 0.000000 -0.000000
vn 1.000000 0.000000 0.000000
vn 1.000000 0.000000 0.000000
vn 1.000000 0.000000 -0.000000
vn 0.000000 -1.000000 0.000000
vn 0.000000 -1.000000 0.000000
vn 0.000000 -1.000000 0.000000
vn 0.000000 -1.000000 0.000000
vn 0.000000 -1.000000 0.000000
vn 0.000000 -1.000000 0.000000
vn 0.000000 -1.000000 0.000000
vn 0.000000 -1.000000 0.000000
vn 0.000000 1.000000 0.000000
vn 0.000000 1.000000 0.000000
vn 0.000000 1.000000 0.000000
vn 0.000000 1.000000 0.000000
vn -0.000000 1.000000 0.000000
vn 0.000000 1.000000 0.000000
vn 0.000000 1.000000 0.000000
vn -0.000000 1.000000 0.000000
# 192 vertex normals

g Mat
f 1/1/1 2/2/2 4/3/3
f 3/5/5 1/6/6 4/7/7
f 3/9/9 4/10/10 6/11/11
f 5/13/13 3/14/14 6/15/15
f 5/17/17 6/18/18 8/19/19
f 7/21/21 5/22/22 8/23/23
f 7/25/25 8/26/26 2/27/27
f 1/29/29 7/30/30 2/31/31
f 2/33/33 8/34/34 6/35/35
f 4/37/37 2/38/38 6/39/39
f 7/41/41 1/42/42 3/43/43
f 5/45/45 7/46/46 3/47/47
f 9/49/49 10/50/50 12/51/51
f 11/53/53 9/54/54 12/55/55
f 11/57/57 12/58/58 14/59/59
f 13/61/61 11/62/62 14/63/63
f 13/65/65 14/66/66 16/67/67
f 15/69/69 13/70/70 16/71/71
f 15/73/73 16/74/74 10/75/75
f 9/77/77 15/78/78 10/79/79
f 10/81/81 16/82/82 14/83/83
f 12/85/85 10/86/86 14/87/87
f 15/89/89 9/90/90 11/91/91
f 13/93/93 15/94/94 11/95/95
f 17/97/97 18/98/98 20/99/99
f 19/101/101 17/102/102 20/103/103
f 19/105/105 20/106/106 12/107/107
f 21/109/109 19/110/110 12/111/111
f 21/113/113 12/114/114 10/115/115
f 22/117/117 21/118/118 10/119/119
f 22/121/121 10/122/122 18/123/123
f 17/125/125 22/126/126 18/127/127
f 18/129/129 10/130/130 12/131/131
f 20/133/133 18/134/134 12/135/135
f 22/137/137 17/138/138 19/139/139
f 21/141/141 22/142/142 19/143/143
f 23/145/145 24/146/146 26/147/147
f 25/149/149 23/150/150 26/151/151
f 25/153/153 26/154/154 28/155/155
f 27/157/157 25/158/158 28/159/159
f 27/161/161 28/162/162 30/163/163
f 29/165/165 27/166/166 30/167/167
f 29/169/169 30/170/170 24/171/171
f 23/173/173 29/174/174 24/175/175
f 24/177/177 30/178/178 28/179/179
f 26/181/181 24/182/182 28/183/183
f 29/185/185 23/186/186 25/187/187
f 27/189/189 29/190/190 25/191/191
# 48 elements

